<?xml version="1.0" encoding="UTF-8"?>
<svg id="Layer_1" data-name="Layer 1" xmlns="http://www.w3.org/2000/svg" viewBox="0 0 80 80">
  <path d="m7.5,36.07c.32-.54.76-.88,1.41-.93.25-.02.49-.15.74-.15,1.43-.04,2.33-.77,2.82-2.08.12-.33.34-.63.53-.93.56-.86,1.65-.88,2.2,0,.44.7.8,1.44,1.26,2.13.17.26.5.5.8.59.75.22,1.52.34,2.29.51,1.19.26,1.53,1.33.73,2.25-.44.51-.88,1.04-1.37,1.5-.45.42-.59.87-.49,1.47.11.67.17,1.34.23,2.02.11,1.22-.77,1.88-1.9,1.41-.9-.37-1.78-1.05-2.68-1.06-.87,0-1.74.69-2.61,1.06-1.13.47-2.02-.19-1.91-1.41.07-.78.2-1.55.23-2.33,0-.31-.13-.69-.32-.94-.62-.8-1.3-1.55-1.96-2.32,0-.25,0-.51,0-.76Zm3.73,1.2c1.15.91,1.48,2.01,1.02,3.36.69-.23,1.27-.58,1.84-.58.59,0,1.17.34,1.89.57-.55-1.41-.07-2.46,1.17-3.42-1.59-.02-2.55-.65-3.04-2.03-.53,1.34-1.44,2.05-2.89,2.1Z"/>
  <path d="m32.3,40.52c2-3.66,5.05-5.33,9.2-5.07.08-.84.11-1.69.24-2.51,1.17-7.28,6.7-12.48,14.03-13.21.74-.07,1.27.2,1.5.79.24.59.06,1.11-.56,1.59-2.62,2.03-3.95,4.68-3.9,8,.08,5.21,4.51,9.43,9.75,9.3,3.09-.08,5.57-1.39,7.47-3.81.56-.72,1.17-.93,1.79-.58.6.34.72.89.65,1.52-.57,5.12-3.02,9.07-7.37,11.83-1.7,1.08-3.56,1.75-5.54,2.07-.12.02-.24.06-.3.08.24,1.11.59,2.19.67,3.28.45,5.68-3.81,10.38-9.5,10.51-1.5.03-3,.01-4.51,0-.91,0-1.46-.47-1.48-1.22-.03-.77.54-1.3,1.46-1.31,1.48-.02,2.96.02,4.44-.01,3.69-.07,6.73-2.84,7.06-6.43.35-3.73-2.06-7-5.73-7.76-1.16-.24-2.31-.18-3.45.16-1.37.4-2.13-.37-1.78-1.77.86-3.38-1.01-6.76-4.27-7.72-3.33-.99-6.7.79-7.84,4.14-.41,1.19-1.06,1.44-2.19.87-1.84-.92-3.66-.86-5.34.33-1.67,1.19-2.36,2.87-2.07,4.93.2,1.4-.1,1.78-1.5,1.96-2.83.36-4.94,2.57-5.07,5.31-.14,2.82,1.71,5.27,4.49,5.87.51.11,1.05.13,1.58.13,3.15.01,6.3,0,9.46,0,.29,0,.6,0,.88.06.59.12.99.65.97,1.24-.01.59-.43,1.09-1.03,1.2-.19.03-.38.04-.57.04-3.36,0-6.73.02-10.09,0-4.77-.03-8.4-3.85-8.23-8.59.13-3.47,2.52-6.51,5.93-7.49.41-.12.56-.26.58-.71.19-5.12,4.96-8.52,9.88-7.08.08.02.16.05.28.09Zm36.75-.52c-5.4,3.27-11.25,2.1-14.84-1.22-2.16-2-3.46-4.45-3.84-7.38-.38-2.91.27-5.6,1.84-8.18-.19.05-.26.07-.34.1-4.71,1.88-8.13,7.35-7.77,12.39.03.4.16.63.53.83,2.23,1.25,3.7,3.12,4.31,5.61.22.89.25,1.82.37,2.76,0,0,.01.01.03.01,3.11-.22,5.78.76,7.98,2.98.12.12.37.19.56.18,2.76-.19,5.22-1.16,7.36-2.91,1.66-1.36,2.91-3.03,3.8-5.17Z"/>
  <path d="m24.07,30.86c.13-1.17.25-2.44.41-3.69.06-.45,0-.79-.34-1.14-.83-.87-1.63-1.78-2.43-2.68-.87-.99-.53-2,.76-2.29,1.18-.26,2.35-.51,3.53-.75.4-.08.67-.25.87-.62.58-1.08,1.2-2.13,1.83-3.19.65-1.1,1.75-1.1,2.4,0,.62,1.06,1.24,2.11,1.83,3.19.2.38.48.54.87.62,1.14.22,2.28.46,3.41.71,1.49.33,1.8,1.31.77,2.47-.76.85-1.51,1.71-2.3,2.54-.33.35-.4.69-.35,1.14.15,1.2.27,2.39.38,3.59.11,1.22-.78,1.85-1.92,1.36-1.16-.5-2.31-1.05-3.48-1.53-.23-.1-.58-.09-.81,0-1.21.5-2.39,1.07-3.6,1.57-.97.4-1.86-.21-1.83-1.3Zm10.81-7.73c-.87-.19-1.63-.38-2.4-.51-.61-.11-1.04-.39-1.33-.94-.38-.71-.8-1.4-1.24-2.17-.46.79-.88,1.47-1.25,2.18-.28.53-.7.82-1.28.92-.78.15-1.56.33-2.44.52.61.68,1.15,1.3,1.71,1.9.37.4.52.84.45,1.39-.1.82-.17,1.65-.25,2.56.78-.35,1.49-.62,2.16-.97.62-.32,1.19-.31,1.81,0,.68.34,1.39.62,2.16.96-.09-.92-.14-1.72-.25-2.51-.08-.57.07-1.03.46-1.44.55-.58,1.07-1.19,1.7-1.89Z"/>
  <path d="m41.27,63.02c.01.69-.53,1.26-1.23,1.28-.72.02-1.31-.55-1.31-1.26,0-.69.56-1.24,1.26-1.24.7,0,1.26.54,1.27,1.23Z"/>
</svg>