<?xml version="1.0" encoding="UTF-8"?>
<svg id="Layer_1" data-name="Layer 1" xmlns="http://www.w3.org/2000/svg" viewBox="0 0 80 80">
  <path d="m9.61,41.67c.3.7,1.08,1.05,1.8.82,2.14-.71,6.47-2.08,8.9-2.52,4.96-.9,9.91-.95,14.75.6,2.81.9,5.55,2.02,8.29,3.12,4.47,1.79,9.07,2.98,13.91,3.02,5.03.05,9.88-.94,14.6-2.61.55-.2,1.1-.41,1.66-.63.76-.3,1.13-1.17.81-1.93v-.03c-.31-.69-1.08-1.05-1.8-.81-1.88.62-3.72,1.24-5.58,1.77-2.3.67-4.67,1.04-7.07,1.16-.14-.82-.25-1.58-.41-2.34-1.91-9.13-11.23-15.43-20.37-13.81-5.44.97-9.59,3.82-12.54,8.47-.13.21-.45.42-.68.43-5.34.13-10.42,1.4-15.39,3.22-.82.3-1.22,1.22-.88,2.02v.03Zm36.83-10.72c5.66,1.77,10.65,7.92,10.28,12.83-1.59-.2-3.18-.34-4.75-.6-3.64-.6-7.02-2.05-10.41-3.41-3.76-1.52-7.54-2.93-11.71-3.24,3.25-4.77,9.9-7.67,16.58-5.58Z"/>
  <path d="m11.44,51.46c2.37-.76,7.4-2.32,10.28-2.74,4.49-.65,8.96-.59,13.29.83,3.07,1.01,6.06,2.24,9.07,3.41,3.53,1.37,7.16,2.35,10.95,2.64,5.07.39,10.01-.34,14.83-1.86,1.23-.39,2.44-.83,3.67-1.29.75-.27,1.12-1.12.81-1.86l-.09-.21c-.29-.68-1.06-1.02-1.75-.77-1.6.57-4.34,1.51-5.85,1.92-5.15,1.38-10.36,1.6-15.59.46-3.76-.82-7.29-2.35-10.84-3.79-3.11-1.26-6.28-2.27-9.63-2.65-4.31-.49-8.56-.1-12.77.84-2.51.56-4.97,1.28-7.37,2.19-.81.31-1.2,1.23-.86,2.02.31.71,1.11,1.08,1.85.84Z"/>
  <path d="m72.48,58.67c-1.86.62-3.66,1.25-5.5,1.75-5.23,1.43-10.52,1.71-15.84.57-3.79-.82-7.34-2.32-10.9-3.8-4.57-1.91-9.28-3-14.25-2.86-4.16.12-8.21.89-12.18,2.12-1.11.35-2.22.72-3.32,1.1-.85.29-1.27,1.24-.91,2.06.32.72,1.12,1.08,1.87.83,2.34-.76,7.27-2.3,10.07-2.72,4.59-.69,9.17-.63,13.6.84,3.06,1.02,6.05,2.25,9.07,3.42,3.64,1.41,7.37,2.39,11.28,2.63,4.85.3,9.58-.39,14.2-1.83,1.27-.39,2.51-.85,3.78-1.31.8-.29,1.19-1.19.86-1.97-.3-.71-1.1-1.08-1.84-.83Z"/>
  <path d="m41.94,21.23c.8,0,1.46-.65,1.46-1.46v-5.97c0-.8-.65-1.46-1.46-1.46s-1.46.65-1.46,1.46v5.97c0,.8.65,1.46,1.46,1.46Z"/>
  <path d="m62.69,33.27c.41.7,1.31.94,2.02.53,1.75-1.01,3.48-2.01,5.21-3,.71-.41.95-1.32.54-2.02l-.02-.03c-.41-.71-1.32-.95-2.02-.54l-5.21,3.01c-.71.41-.95,1.32-.54,2.03l.02.03Z"/>
  <path d="m13.97,30.81l5.19,2.99c.71.41,1.63.17,2.04-.54.41-.71.17-1.63-.54-2.04l-5.18-3c-.71-.41-1.63-.17-2.04.54h0c-.41.72-.17,1.64.55,2.05Z"/>
  <path d="m27.93,23.94c.41.71,1.32.96,2.04.55.72-.41.97-1.33.55-2.04l-1.49-2.59c-.41-.71-1.32-.96-2.04-.55h0c-.72.41-.96,1.33-.55,2.05l1.5,2.59Z"/>
  <path d="m53.92,24.48c.71.41,1.63.17,2.04-.54l1.5-2.59c.41-.71.17-1.63-.55-2.04h0c-.71-.41-1.63-.17-2.03.54l-1.5,2.6c-.41.71-.17,1.62.55,2.04Z"/>
</svg>