<?xml version="1.0" encoding="UTF-8"?>
<svg id="Layer_1" data-name="Layer 1" xmlns="http://www.w3.org/2000/svg" viewBox="0 0 80 80">
  <path d="m70.47,52.75h-11.01c-1.2-10.75-10.89-18.48-21.64-17.28-9.09,1.02-16.26,8.19-17.28,17.28h-11.01c-1.12,0-2.03.91-2.03,2.03s.91,2.03,2.03,2.03h60.94c1.12,0,2.03-.91,2.03-2.03s-.91-2.03-2.03-2.03Zm-45.78,0c1.07-8.46,8.79-14.45,17.25-13.38,6.99.88,12.5,6.39,13.38,13.38h-30.63Z"/>
  <path d="m38.16,30.43c1.01,1.02,2.67,1.02,3.68,0l4.25-4.28c.79-.79.78-2.07,0-2.85s-2.06-.79-2.85-.01l-1.21,1.19v-9.42c0-1.12-.91-2.03-2.03-2.03s-2.03.91-2.03,2.03v9.42l-1.21-1.19c-.79-.78-2.06-.77-2.85.01-.79.79-.79,2.06,0,2.85l4.25,4.28Z"/>
  <path d="m57.7,37.1c.79.79,2.07.79,2.86,0l2.4-2.42c.78-.79.78-2.06,0-2.85-.79-.79-2.06-.79-2.85,0l-2.42,2.4c-.79.79-.8,2.07,0,2.86l.02.02Z"/>
  <path d="m19.44,37.1c.79.79,2.07.8,2.86,0l.02-.02c.79-.79.79-2.07,0-2.86l-2.42-2.4c-.79-.78-2.06-.78-2.85,0-.79.79-.79,2.06,0,2.85l2.4,2.42Z"/>
  <path d="m62.34,62.91h-16.25c-1.12,0-2.03.91-2.03,2.03s.91,2.03,2.03,2.03h16.25c1.12,0,2.03-.91,2.03-2.03s-.91-2.03-2.03-2.03Z"/>
  <path d="m33.91,62.91h-16.25c-1.12,0-2.03.91-2.03,2.03s.91,2.03,2.03,2.03h16.25c1.12,0,2.03-.91,2.03-2.03s-.91-2.03-2.03-2.03Z"/>
</svg>