<?xml version="1.0" encoding="UTF-8"?>
<svg id="Layer_1" data-name="Layer 1" xmlns="http://www.w3.org/2000/svg" viewBox="0 0 80 80">
  <path d="m40.02,23.75c-8.97,0-16.25,7.26-16.27,16.21-.02,8.96,7.27,16.28,16.2,16.29,9.02,0,16.29-7.24,16.31-16.25.02-8.93-7.29-16.25-16.23-16.25Zm.11,27.85c-6.44.03-11.71-5.13-11.73-11.5-.02-6.47,5.13-11.68,11.59-11.71,6.39-.03,11.6,5.18,11.62,11.61.02,6.32-5.17,11.57-11.48,11.6Z"/>
  <path d="m39.98,21.43c1.34,0,2.33-1.04,2.34-2.5,0-2.97,0-5.95,0-8.92,0-1.47-.99-2.51-2.34-2.5-1.35.01-2.29,1.05-2.3,2.54,0,1.47,0,2.95,0,4.42s0,2.95,0,4.42c0,1.48.96,2.53,2.3,2.54Z"/>
  <path d="m21.42,40c0-1.32-1.04-2.31-2.45-2.32-1.47-.01-2.95,0-4.42,0-1.55,0-3.09-.01-4.64,0-1.38.01-2.39.99-2.41,2.28-.02,1.32,1.01,2.35,2.41,2.36,3.02.01,6.04.01,9.07,0,1.41,0,2.45-1,2.45-2.32Z"/>
  <path d="m70.01,37.68c-2.97,0-5.95,0-8.92,0-1.48,0-2.52.97-2.52,2.32,0,1.34,1.05,2.31,2.52,2.32,1.47,0,2.95,0,4.42,0,1.5,0,3,0,4.5,0,1.43,0,2.46-.97,2.48-2.29.02-1.35-1.03-2.35-2.49-2.35Z"/>
  <path d="m39.98,58.57c-1.32.01-2.29,1.04-2.3,2.47,0,1.47,0,2.95,0,4.42s0,3.05,0,4.57c0,1.42.99,2.46,2.3,2.47,1.32,0,2.33-1.02,2.34-2.43.01-3.02.01-6.04,0-9.06,0-1.41-1.02-2.44-2.34-2.43Z"/>
  <path d="m23.7,26.94c.9.85,2.29.78,3.15-.07.86-.85.96-2.25.11-3.15-1.31-1.39-2.66-2.74-4.04-4.05-.71-.68-1.61-.75-2.5-.32-.86.41-1.28,1.14-1.33,2.38.12.26.26.84.61,1.22,1.29,1.37,2.63,2.7,4,4Z"/>
  <path d="m56.37,26.89c1.33-1.27,2.64-2.56,3.89-3.9.37-.39.52-.99.67-1.28-.07-1.26-.51-2.01-1.41-2.41-.93-.41-1.82-.26-2.55.45-1.3,1.27-2.58,2.55-3.84,3.85-.91.95-.88,2.37.03,3.26.88.87,2.28.91,3.21.02Z"/>
  <path d="m23.6,53.15c-1.35,1.27-2.67,2.59-3.94,3.93-.65.69-.74,1.56-.35,2.43.4.89,1.13,1.35,2.39,1.4.25-.11.82-.22,1.18-.56,1.37-1.29,2.71-2.61,3.99-3.99.81-.86.7-2.28-.12-3.09-.85-.85-2.26-.95-3.15-.12Z"/>
  <path d="m56.57,53.32c-.43-.4-1.05-.6-1.33-.75-1.33.05-2.06.49-2.45,1.4-.39.93-.24,1.81.47,2.54,1.19,1.23,2.4,2.44,3.62,3.64,1,.99,2.42.98,3.36.03.91-.93.89-2.32-.07-3.31-1.18-1.21-2.36-2.42-3.6-3.56Z"/>
</svg>