<?xml version="1.0" encoding="UTF-8"?>
<svg id="Layer_1" data-name="Layer 1" xmlns="http://www.w3.org/2000/svg" viewBox="0 0 80 80">
  <path d="m60.77,49.56c-2.99-.01-5.98,0-8.96,0-6.21,0-12.42-.01-18.63.02-.5,0-1.07.2-1.49.49-.63.44-.77,1.28-.5,2,.29.76.97,1.21,1.87,1.21,4.6,0,9.2,0,13.79,0,1.14,0,2.29,0,3.43,0,3.47,0,6.95,0,10.42,0,.94,0,1.64-.46,1.92-1.23.45-1.25-.46-2.49-1.85-2.49Z"/>
  <path d="m49.59,57.02c-3.07-.01-6.13,0-9.2,0-6.13,0-12.26-.01-18.39.02-.5,0-1.07.21-1.49.49-.63.44-.77,1.28-.5,2,.29.76.97,1.21,1.87,1.21,4.6,0,9.2,0,13.79,0,1.18,0,2.37,0,3.55,0,3.43,0,6.87,0,10.3,0,.94,0,1.64-.46,1.92-1.23.44-1.25-.46-2.49-1.85-2.49Z"/>
  <path d="m40.01,24.84c.99,0,1.8-.79,1.85-1.8.02-.33,0-.66,0-.99,0-.35.02-.7,0-1.05-.06-.98-.87-1.74-1.84-1.75-1,0-1.83.76-1.87,1.77-.03.68-.03,1.36,0,2.04.04,1.01.88,1.79,1.86,1.78Z"/>
  <path d="m16.5,35.8c.51.31,1.03.62,1.56.9.29.15.61.22.92.33.86-.06,1.57-.58,1.81-1.38.25-.8-.03-1.62-.75-2.09-.55-.36-1.13-.69-1.71-1-.93-.5-2.03-.21-2.54.66-.53.9-.24,2,.7,2.57Z"/>
  <path d="m51.19,27.84c.85.48,1.91.24,2.46-.6.38-.58.72-1.2,1.04-1.81.13-.25.17-.55.21-.68-.02-.99-.55-1.68-1.35-1.92-.76-.23-1.59.05-2.04.74-.39.6-.75,1.22-1.07,1.86-.44.88-.09,1.94.75,2.42Z"/>
  <path d="m26.56,27.5c.53.71,1.56.77,2.32.28.75-.48,1.1-1.43.72-2.24-.34-.72-.75-1.41-1.19-2.06-.44-.65-1.29-.88-2.02-.64-.78.26-1.28.93-1.3,1.85.01.07,0,.27.07.41.45.81.85,1.66,1.4,2.4Z"/>
  <path d="m61.69,36.8c.7-.33,1.37-.73,2.01-1.16.67-.45.91-1.31.65-2.07-.26-.77-.95-1.27-1.88-1.27-.08.02-.29.01-.45.1-.76.42-1.56.8-2.26,1.31-.73.53-.84,1.59-.36,2.36.48.77,1.45,1.12,2.28.73Z"/>
  <path d="m65.24,38.89c-.8,0-3.27,0-6.53,0-3.24-7.22-10.41-12.14-18.62-12.17-8.28-.03-15.54,4.91-18.8,12.17-2.01,0-4.08,0-6.38.02-.5,0-1.07.21-1.49.49-.63.44-.77,1.28-.5,2,.29.76.97,1.21,1.87,1.21,4.6,0,7.57,0,12.17,0,1.18,0,2.37,0,3.55,0,3.43,0,31.23,0,34.67,0,.94,0,1.64-.46,1.92-1.23.44-1.25-.46-2.49-1.85-2.49Zm-33.56,0c-2.23,0-4.24,0-6.2,0,2.79-4.84,8.04-8.43,14.5-8.44,6.52-.01,11.77,3.59,14.56,8.44-9.12,0-20.9,0-22.85,0Z"/>
</svg>