<?xml version="1.0" encoding="UTF-8"?>
<svg id="Layer_1" data-name="Layer 1" xmlns="http://www.w3.org/2000/svg" viewBox="0 0 80 80">
  <path d="m70.69,57.68c-3.7.02-7.41,0-11.11,0h-.76c3.29-12.07-5.21-23.66-17-24.74-5.32-.49-10.15.91-14.23,4.38-6.33,5.39-8.28,12.28-6.51,20.36h-.81c-3.62,0-7.24,0-10.85,0-.21,0-.42-.01-.63.01-.75.08-1.27.63-1.28,1.33-.01.73.52,1.3,1.3,1.38.15.02.3,0,.44,0,20.5,0,41.01,0,61.51,0,.8,0,1.4-.24,1.74-.99v-.76c-.37-.76-.99-1-1.81-.99Zm-14.55-.55c-.13.46-.34.57-.79.57-5.14-.02-10.28,0-15.42,0s-10.19,0-15.29.01c-.53,0-.73-.17-.87-.65-2.9-9.95,4.11-20.37,14.41-21.38,8.99-.89,16.9,5.13,18.41,14.05.42,2.49.25,4.97-.45,7.41Z"/>
  <path d="m51.92,69.82c-.15,0-.3,0-.44,0-7.65,0-15.29,0-22.94,0-.25,0-.51,0-.76.03-.85.13-1.39,1.04-1.01,1.81.16.33.52.58.79.86h24.88c.07-.05.13-.1.2-.15.6-.4.84-.94.67-1.57-.16-.59-.66-.95-1.39-.98Z"/>
  <path d="m62.41,63.75c-7.47,0-14.94,0-22.41,0-7.38,0-14.77,0-22.15,0-.21,0-.42-.01-.63.01-.73.08-1.23.66-1.22,1.38.02.7.51,1.23,1.23,1.3.23.02.46.02.7.02,14.73,0,29.46,0,44.18,0,.25,0,.51,0,.76-.03.68-.09,1.14-.62,1.15-1.29.01-.85-.59-1.38-1.6-1.39Z"/>
  <path d="m37.2,13.55c.43-.42.84-.88,1.26-1.32.06.03.11.06.17.09v.88c0,2.28,0,4.57,0,6.85,0,1.02.61,1.63,1.5,1.55.76-.06,1.23-.64,1.23-1.57,0-2.37,0-4.74,0-7.11v-.65c.07-.03.14-.06.2-.08.41.45.81.92,1.24,1.35.64.64,1.47.66,2.03.08.53-.55.5-1.36-.11-1.98-1.22-1.23-2.45-2.46-3.68-3.67-.67-.65-1.4-.66-2.07,0-1.24,1.21-2.46,2.44-3.68,3.68-.64.65-.65,1.45-.07,2.02.56.54,1.33.51,1.97-.12Z"/>
  <path d="m16.53,40.52c1.07.68,2.15,1.34,3.29,1.88.86.41,1.79-.31,1.88-1.32-.18-.32-.29-.75-.57-.93-1.08-.69-2.2-1.34-3.34-1.92-.57-.29-1.25.03-1.57.58-.34.59-.26,1.33.31,1.7Z"/>
  <path d="m13.85,53.87c1.14.03,2.28.03,3.42,0,.79-.02,1.33-.58,1.34-1.32.01-.75-.56-1.34-1.36-1.37-.55-.02-1.1,0-1.65,0-.57,0-1.14-.02-1.71,0-.81.03-1.37.6-1.37,1.36,0,.74.53,1.31,1.32,1.33Z"/>
  <path d="m27.53,33.61c.33.51.89.63,1.47.43.59-.2.86-.65.91-1.29-.02-.11-.01-.28-.08-.4-.63-1.12-1.24-2.26-1.94-3.33-.35-.53-1.11-.57-1.66-.24-.56.34-.85,1.05-.54,1.65.56,1.08,1.18,2.15,1.84,3.17Z"/>
  <path d="m41.29,26.41c-.04-.79-.6-1.31-1.35-1.31-.74,0-1.32.55-1.34,1.33-.03,1.08-.02,2.16,0,3.24.02.82.59,1.37,1.36,1.37.75,0,1.29-.53,1.33-1.33.03-.55,0-1.1,0-1.65,0-.55.02-1.1,0-1.65Z"/>
  <path d="m61.33,52.56c0,.74.54,1.3,1.34,1.32,1.04.03,2.07.03,3.11,0,.79-.02,1.33-.59,1.34-1.32,0-.75-.56-1.33-1.37-1.36-.51-.02-1.02,0-1.52,0-.51,0-1.02-.02-1.52,0-.81.03-1.37.61-1.36,1.37Z"/>
  <path d="m60.4,42.29c.85-.46,1.71-.92,2.51-1.46.36-.25.58-.7.72-.88.01-1.34-1.04-1.98-2.01-1.47-.87.46-1.73.96-2.58,1.48-.72.44-.93,1.17-.56,1.84.37.67,1.17.89,1.91.49Z"/>
  <path d="m51.6,34.15c.18-.12.65-.28.87-.61.6-.89,1.12-1.84,1.62-2.79.34-.65.09-1.32-.54-1.69-.64-.38-1.34-.29-1.74.33-.6.94-1.18,1.91-1.67,2.91-.41.84.28,1.82,1.46,1.85Z"/>
</svg>